<svg width="48" height="49" viewBox="0 0 48 49" fill="none" xmlns="http://www.w3.org/2000/svg">
<g opacity="0.48">
<path d="M18 23.3H9.165C9.44378 21.4436 10.1067 19.6656 11.1114 18.0798C12.1161 16.494 13.4405 15.1351 15 14.09L17.685 12.29L16.035 9.80005L13.35 11.6C11.0899 13.1062 9.23656 15.1469 7.9544 17.5411C6.67223 19.9354 6.00091 22.6091 6 25.325V35.3C6 36.0957 6.31607 36.8588 6.87868 37.4214C7.44129 37.984 8.20435 38.3 9 38.3H18C18.7956 38.3 19.5587 37.984 20.1213 37.4214C20.6839 36.8588 21 36.0957 21 35.3V26.3C21 25.5044 20.6839 24.7413 20.1213 24.1787C19.5587 23.6161 18.7956 23.3 18 23.3Z" fill="#919EAB"/>
<path d="M39 23.3H30.165C30.4438 21.4436 31.1067 19.6656 32.1114 18.0798C33.1161 16.494 34.4405 15.1351 36 14.09L38.685 12.29L37.05 9.80005L34.35 11.6C32.0899 13.1062 30.2366 15.1469 28.9544 17.5411C27.6722 19.9354 27.0009 22.6091 27 25.325V35.3C27 36.0957 27.3161 36.8588 27.8787 37.4214C28.4413 37.984 29.2043 38.3 30 38.3H39C39.7957 38.3 40.5587 37.984 41.1213 37.4214C41.6839 36.8588 42 36.0957 42 35.3V26.3C42 25.5044 41.6839 24.7413 41.1213 24.1787C40.5587 23.6161 39.7957 23.3 39 23.3Z" fill="#919EAB"/>
</g>
</svg>
