<svg width="36" height="37" viewBox="0 0 36 37" fill="none" xmlns="http://www.w3.org/2000/svg">
<path d="M22.032 12.5501C22.487 12.5497 22.9376 12.6401 23.3572 12.8161C23.7768 12.9921 24.1571 13.2502 24.4757 13.5751C25.1322 14.2415 25.5002 15.1395 25.5002 16.0751C25.5002 17.0106 25.1322 17.9086 24.4757 18.5751L18.0007 25.1313L11.5257 18.5751C10.8692 17.9086 10.5012 17.0106 10.5012 16.0751C10.5012 15.1395 10.8692 14.2415 11.5257 13.5751C11.8445 13.2504 12.2248 12.9925 12.6444 12.8165C13.064 12.6404 13.5144 12.5498 13.9695 12.5498C14.4245 12.5498 14.8749 12.6404 15.2945 12.8165C15.7141 12.9925 16.0944 13.2504 16.4132 13.5751L18.0007 15.2001L19.582 13.5876C19.8996 13.2588 20.2803 12.9975 20.7013 12.8192C21.1222 12.6409 21.5748 12.5494 22.032 12.5501ZM22.032 11.3001C21.4105 11.2995 20.7951 11.4231 20.222 11.6635C19.6489 11.9039 19.1296 12.2563 18.6945 12.7001L18.0007 13.4001L17.307 12.7001C16.8713 12.2571 16.3518 11.9053 15.7788 11.6652C15.2058 11.425 14.5908 11.3014 13.9695 11.3014C13.3482 11.3014 12.7331 11.425 12.1601 11.6652C11.5871 11.9053 11.0676 12.2571 10.632 12.7001C9.74564 13.6023 9.24902 14.8165 9.24902 16.0813C9.24902 17.3461 9.74564 18.5603 10.632 19.4626L18.0007 26.9251L25.3695 19.4626C26.2558 18.5603 26.7524 17.3461 26.7524 16.0813C26.7524 14.8165 26.2558 13.6023 25.3695 12.7001C24.9339 12.2569 24.4145 11.9048 23.8415 11.6645C23.2685 11.4241 22.6533 11.3002 22.032 11.3001Z" fill="#637381"/>
</svg>
