<svg width="36" height="37" viewBox="0 0 36 37" fill="none" xmlns="http://www.w3.org/2000/svg">
<path d="M22.3751 21.2999C21.9072 21.3023 21.4459 21.4096 21.0251 21.6141C20.6043 21.8185 20.2348 22.1149 19.9438 22.4812L15.3751 19.6249C15.5416 19.0875 15.5416 18.5123 15.3751 17.9749L19.9438 15.1187C20.4075 15.6929 21.0595 16.0844 21.7843 16.2239C22.509 16.3635 23.2598 16.242 23.9035 15.8809C24.5473 15.5199 25.0425 14.9427 25.3014 14.2516C25.5603 13.5604 25.5662 12.7999 25.3182 12.1048C25.0701 11.4097 24.5839 10.8248 23.9459 10.4538C23.3079 10.0828 22.5591 9.94959 21.8323 10.0778C21.1054 10.2059 20.4474 10.5872 19.9748 11.1541C19.5021 11.721 19.2454 12.4369 19.2501 13.1749C19.253 13.4544 19.2951 13.7321 19.3751 13.9999L14.8063 16.8562C14.403 16.3484 13.8516 15.9787 13.2288 15.7983C12.6059 15.6179 11.9423 15.6357 11.3301 15.8493C10.7178 16.0629 10.1871 16.4617 9.81161 16.9904C9.43611 17.5191 9.23438 18.1515 9.23438 18.7999C9.23438 19.4484 9.43611 20.0808 9.81161 20.6095C10.1871 21.1382 10.7178 21.537 11.3301 21.7506C11.9423 21.9641 12.6059 21.982 13.2288 21.8016C13.8516 21.6212 14.403 21.2514 14.8063 20.7437L19.3751 23.5999C19.2951 23.8678 19.253 24.1454 19.2501 24.4249C19.2501 25.043 19.4333 25.6472 19.7767 26.1611C20.1201 26.675 20.6081 27.0755 21.1792 27.3121C21.7502 27.5486 22.3785 27.6105 22.9847 27.4899C23.5909 27.3693 24.1477 27.0717 24.5848 26.6346C25.0218 26.1976 25.3194 25.6408 25.44 25.0346C25.5606 24.4284 25.4987 23.8001 25.2622 23.229C25.0257 22.658 24.6251 22.17 24.1112 21.8266C23.5973 21.4832 22.9931 21.2999 22.3751 21.2999ZM22.3751 11.2999C22.7459 11.2999 23.1084 11.4099 23.4167 11.6159C23.7251 11.822 23.9654 12.1148 24.1073 12.4574C24.2492 12.8 24.2864 13.177 24.214 13.5407C24.1417 13.9044 23.9631 14.2385 23.7009 14.5008C23.4387 14.763 23.1046 14.9416 22.7408 15.0139C22.3771 15.0863 22.0001 15.0491 21.6575 14.9072C21.3149 14.7653 21.0221 14.525 20.816 14.2166C20.61 13.9083 20.5001 13.5458 20.5001 13.1749C20.5001 12.6777 20.6976 12.2007 21.0492 11.8491C21.4009 11.4975 21.8778 11.2999 22.3751 11.2999ZM12.3751 20.6749C12.0042 20.6749 11.6417 20.565 11.3334 20.3589C11.025 20.1529 10.7847 19.8601 10.6428 19.5175C10.5009 19.1749 10.4637 18.7979 10.5361 18.4341C10.6084 18.0704 10.787 17.7363 11.0492 17.4741C11.3115 17.2119 11.6455 17.0333 12.0093 16.961C12.373 16.8886 12.75 16.9257 13.0926 17.0677C13.4352 17.2096 13.728 17.4499 13.9341 17.7582C14.1401 18.0666 14.2501 18.4291 14.2501 18.7999C14.2501 19.2972 14.0525 19.7741 13.7009 20.1258C13.3492 20.4774 12.8723 20.6749 12.3751 20.6749ZM22.3751 26.2999C22.0042 26.2999 21.6417 26.19 21.3334 25.9839C21.025 25.7779 20.7847 25.4851 20.6428 25.1425C20.5009 24.7999 20.4637 24.4229 20.5361 24.0591C20.6084 23.6954 20.787 23.3613 21.0492 23.0991C21.3115 22.8369 21.6455 22.6583 22.0093 22.586C22.373 22.5136 22.75 22.5507 23.0926 22.6927C23.4352 22.8346 23.728 23.0749 23.9341 23.3832C24.1401 23.6916 24.2501 24.0541 24.2501 24.4249C24.2501 24.9222 24.0525 25.3991 23.7009 25.7508C23.3492 26.1024 22.8723 26.2999 22.3751 26.2999Z" fill="#637381"/>
</svg>
