<svg width="48" height="48" viewBox="0 0 48 48" fill="none" xmlns="http://www.w3.org/2000/svg">
<path d="M14.2504 12H30.1504C30.5221 13.8211 31.5568 15.4393 33.0538 16.5408C34.5508 17.6424 36.4035 18.1488 38.2527 17.962C40.1019 17.7752 41.8159 16.9085 43.0623 15.5297C44.3088 14.151 44.9989 12.3586 44.9989 10.5C44.9989 8.6414 44.3088 6.84899 43.0623 5.47029C41.8159 4.09158 40.1019 3.2248 38.2527 3.038C36.4035 2.85119 34.5508 3.35766 33.0538 4.45922C31.5568 5.56078 30.5221 7.17895 30.1504 9.00002H14.2504C12.0624 9.00002 9.96397 9.86921 8.41679 11.4164C6.86962 12.9636 6.00042 15.062 6.00042 17.25C6.00042 19.4381 6.86962 21.5365 8.41679 23.0836C9.96397 24.6308 12.0624 25.5 14.2504 25.5H30.7504C32.1428 25.5 33.4782 26.0531 34.4627 27.0377C35.4473 28.0223 36.0004 29.3576 36.0004 30.75C36.0004 32.1424 35.4473 33.4778 34.4627 34.4623C33.4782 35.4469 32.1428 36 30.7504 36H17.8504C17.4787 34.179 16.444 32.5608 14.947 31.4592C13.45 30.3577 11.5973 29.8512 9.74814 30.038C7.89893 30.2248 6.18496 31.0916 4.93852 32.4703C3.69207 33.849 3.00195 35.6414 3.00195 37.5C3.00195 39.3586 3.69207 41.151 4.93852 42.5297C6.18496 43.9085 7.89893 44.7752 9.74814 44.962C11.5973 45.1488 13.45 44.6424 14.947 43.5408C16.444 42.4393 17.4787 40.8211 17.8504 39H30.7504C32.9385 39 35.0369 38.1308 36.5841 36.5836C38.1312 35.0365 39.0004 32.9381 39.0004 30.75C39.0004 28.562 38.1312 26.4636 36.5841 24.9164C35.0369 23.3692 32.9385 22.5 30.7504 22.5H14.2504C12.858 22.5 11.5227 21.9469 10.5381 20.9623C9.55355 19.9778 9.00042 18.6424 9.00042 17.25C9.00042 15.8576 9.55355 14.5223 10.5381 13.5377C11.5227 12.5531 12.858 12 14.2504 12ZM37.5004 6.00002C38.3904 6.00002 39.2605 6.26394 40.0005 6.7584C40.7405 7.25287 41.3173 7.95567 41.6579 8.77794C41.9985 9.60021 42.0876 10.505 41.914 11.3779C41.7403 12.2508 41.3117 13.0527 40.6824 13.682C40.0531 14.3113 39.2512 14.7399 38.3783 14.9136C37.5054 15.0872 36.6006 14.9981 35.7784 14.6575C34.9561 14.3169 34.2533 13.7401 33.7588 13.0001C33.2643 12.2601 33.0004 11.39 33.0004 10.5C33.0004 9.30654 33.4745 8.16195 34.3184 7.31804C35.1624 6.47412 36.3069 6.00002 37.5004 6.00002ZM10.5004 42C9.61041 42 8.74038 41.7361 8.00036 41.2416C7.26034 40.7472 6.68356 40.0444 6.34297 39.2221C6.00237 38.3998 5.91326 37.495 6.08689 36.6221C6.26052 35.7492 6.68911 34.9474 7.31844 34.318C7.94778 33.6887 8.7496 33.2601 9.62252 33.0865C10.4954 32.9128 11.4002 33.002 12.2225 33.3426C13.0448 33.6832 13.7476 34.2599 14.242 35C14.7365 35.74 15.0004 36.61 15.0004 37.5C15.0004 38.6935 14.5263 39.8381 13.6824 40.682C12.8385 41.5259 11.6939 42 10.5004 42Z" fill="#FA541C"/>
</svg>
