<svg width="48" height="48" viewBox="0 0 48 48" fill="none" xmlns="http://www.w3.org/2000/svg">
<path d="M45 22.5H35.895C35.5585 19.8605 34.3552 17.4075 32.4738 15.5259C30.5924 13.6443 28.1394 12.4407 25.5 12.1039V3H22.5V12.1039C19.8606 12.4407 17.4076 13.6443 15.5262 15.5259C13.6448 17.4075 12.4415 19.8605 12.105 22.5H3V25.5H12.105C12.4415 28.1395 13.6448 30.5925 15.5262 32.4741C17.4076 34.3557 19.8606 35.5593 22.5 35.896V45H25.5V35.896C28.1396 35.5595 30.5927 34.3559 32.4742 32.4743C34.3558 30.5927 35.5593 28.1396 35.8958 25.5H45V22.5ZM24 33C22.22 33 20.4799 32.4722 18.9999 31.4832C17.5198 30.4943 16.3663 29.0887 15.6851 27.4442C15.0039 25.7996 14.8257 23.99 15.1729 22.2442C15.5202 20.4984 16.3774 18.8947 17.636 17.636C18.8947 16.3774 20.4984 15.5202 22.2442 15.1729C23.99 14.8257 25.7996 15.0039 27.4442 15.6851C29.0887 16.3663 30.4943 17.5198 31.4832 18.9999C32.4722 20.4799 33 22.22 33 24C32.9974 26.3861 32.0483 28.6738 30.3611 30.3611C28.6738 32.0483 26.3861 32.9974 24 33Z" fill="#FA541C"/>
</svg>
