<svg width="48" height="48" viewBox="0 0 48 48" fill="none" xmlns="http://www.w3.org/2000/svg">
<path d="M23.9995 28.5001C22.2669 28.5016 20.561 28.0737 19.0341 27.2547C17.5073 26.4358 16.2072 25.2513 15.25 23.8071L17.749 22.146C18.4333 23.1773 19.3621 24.0233 20.4527 24.6086C21.5433 25.1938 22.7618 25.5001 23.9995 25.5001C25.2372 25.5001 26.4557 25.1938 27.5463 24.6086C28.6369 24.0233 29.5658 23.1773 30.25 22.146L32.749 23.8071C31.7918 25.2513 30.4917 26.4358 28.9649 27.2547C27.4381 28.0737 25.7321 28.5016 23.9995 28.5001Z" fill="#FA541C"/>
<path d="M30 12C29.4067 12 28.8266 12.1759 28.3333 12.5055C27.8399 12.8352 27.4554 13.3037 27.2284 13.8519C27.0013 14.4001 26.9419 15.0033 27.0576 15.5852C27.1734 16.1672 27.4591 16.7017 27.8787 17.1213C28.2982 17.5408 28.8328 17.8266 29.4147 17.9423C29.9967 18.0581 30.5999 17.9987 31.148 17.7716C31.6962 17.5445 32.1648 17.16 32.4944 16.6667C32.824 16.1733 33 15.5933 33 15C33.0039 14.6049 32.9289 14.2131 32.7796 13.8473C32.6302 13.4816 32.4093 13.1493 32.13 12.87C31.8506 12.5906 31.5184 12.3698 31.1526 12.2204C30.7869 12.071 30.395 11.9961 30 12Z" fill="#FA541C"/>
<path d="M18 12C17.4067 12 16.8266 12.1759 16.3333 12.5055C15.8399 12.8352 15.4554 13.3037 15.2284 13.8519C15.0013 14.4001 14.9419 15.0033 15.0576 15.5852C15.1734 16.1672 15.4591 16.7017 15.8787 17.1213C16.2982 17.5408 16.8328 17.8266 17.4147 17.9423C17.9967 18.0581 18.5999 17.9987 19.1481 17.7716C19.6962 17.5445 20.1648 17.16 20.4944 16.6667C20.8241 16.1733 21 15.5933 21 15C21.0039 14.6049 20.9289 14.2131 20.7796 13.8473C20.6302 13.4816 20.4093 13.1493 20.13 12.87C19.8506 12.5906 19.5184 12.3698 19.1526 12.2204C18.7869 12.071 18.395 11.9961 18 12Z" fill="#FA541C"/>
<path d="M26.6037 45L24 43.5L30 33H39C39.3942 33.0007 39.7846 32.9235 40.1488 32.773C40.5131 32.6225 40.8441 32.4015 41.1228 32.1228C41.4015 31.8441 41.6225 31.5131 41.773 31.1488C41.9235 30.7846 42.0007 30.3942 42 30V9C42.0007 8.60585 41.9235 8.21544 41.773 7.85116C41.6225 7.48688 41.4015 7.15589 41.1228 6.87718C40.8441 6.59847 40.5131 6.37752 40.1488 6.22699C39.7846 6.07647 39.3942 5.99933 39 6H9C8.60585 5.99933 8.21544 6.07647 7.85116 6.22699C7.48688 6.37752 7.15589 6.59847 6.87718 6.87718C6.59847 7.15589 6.37752 7.48688 6.22699 7.85116C6.07647 8.21544 5.99933 8.60585 6 9V30C5.99933 30.3942 6.07647 30.7846 6.22699 31.1488C6.37752 31.5131 6.59847 31.8441 6.87718 32.1228C7.15589 32.4015 7.48688 32.6225 7.85116 32.773C8.21544 32.9235 8.60585 33.0007 9 33H22.5V36H9C8.21203 36.0001 7.43175 35.845 6.70374 35.5436C5.97572 35.2421 5.31423 34.8001 4.75705 34.2429C4.19987 33.6858 3.75792 33.0243 3.45644 32.2963C3.15496 31.5682 2.99986 30.788 3 30V9C2.99976 8.212 3.1548 7.43168 3.45624 6.70362C3.75769 5.97556 4.19963 5.31403 4.75683 4.75683C5.31403 4.19963 5.97556 3.75769 6.70362 3.45624C7.43168 3.1548 8.212 2.99976 9 3H39C39.788 2.99976 40.5683 3.1548 41.2964 3.45624C42.0244 3.75769 42.686 4.19963 43.2432 4.75683C43.8004 5.31403 44.2423 5.97556 44.5438 6.70362C44.8452 7.43168 45.0002 8.212 45 9V30C45.0001 30.788 44.845 31.5682 44.5436 32.2963C44.2421 33.0243 43.8001 33.6858 43.243 34.2429C42.6858 34.8001 42.0243 35.2421 41.2963 35.5436C40.5682 35.845 39.788 36.0001 39 36H31.7469L26.6037 45Z" fill="#FA541C"/>
</svg>
