<svg width="8" height="5" viewBox="0 0 8 5" fill="none" xmlns="http://www.w3.org/2000/svg">
<path d="M3.99988 4.33329C3.91214 4.3338 3.82517 4.31698 3.74394 4.28381C3.66272 4.25063 3.58884 4.20175 3.52655 4.13996L0.859879 1.47329C0.79772 1.41113 0.748413 1.33734 0.714773 1.25613C0.681133 1.17491 0.663818 1.08787 0.663818 0.999961C0.663818 0.912054 0.681133 0.825009 0.714773 0.743794C0.748413 0.662579 0.79772 0.588786 0.859879 0.526627C0.922038 0.464468 0.995832 0.415161 1.07705 0.381521C1.15826 0.34788 1.24531 0.330566 1.33321 0.330566C1.42112 0.330566 1.50816 0.34788 1.58938 0.381521C1.67059 0.415161 1.74439 0.464468 1.80655 0.526627L3.99988 2.73329L6.19988 0.613294C6.26121 0.545101 6.33595 0.490295 6.41942 0.452304C6.5029 0.414313 6.59331 0.393955 6.68501 0.392502C6.77672 0.39105 6.86773 0.408533 6.95237 0.44386C7.03701 0.479188 7.11344 0.531599 7.1769 0.597815C7.24036 0.664031 7.28947 0.742629 7.32117 0.828691C7.35286 0.914754 7.36646 1.00643 7.3611 1.09799C7.35575 1.18955 7.33157 1.27901 7.29006 1.3608C7.24855 1.44258 7.19062 1.51492 7.11988 1.57329L4.45321 4.14663C4.3313 4.26417 4.16921 4.33091 3.99988 4.33329Z" fill="white"/>
</svg>
