<svg width="75" height="20" viewBox="0 0 75 20" fill="none" xmlns="http://www.w3.org/2000/svg">
<ellipse cx="69.1667" cy="14.1667" rx="4.16669" ry="4.16666" fill="#FA541C"/>
<path d="M49.4445 18.3333H45.3601L38.5288 8.05314V18.3333H34.4445V1.66663H38.5288L45.3601 11.9943V1.66663H49.4445V18.3333Z" fill="#212B36"/>
<path d="M55.6434 4.91924V8.29056H61.1111V11.4245H55.6434V15.0807H61.6667V18.3333H51.6667V1.66663H61.6667V4.91924H55.6434Z" fill="#212B36"/>
<path d="M23.912 18.3333C22.3843 18.3333 20.9799 17.9779 19.6991 17.267C18.4336 16.5561 17.4228 15.5671 16.6667 14.2999C15.9259 13.0173 15.5556 11.5801 15.5556 9.98837C15.5556 8.39665 15.9259 6.9672 16.6667 5.70001C17.4228 4.43281 18.4336 3.44379 19.6991 2.73292C20.9799 2.02206 22.3843 1.66663 23.912 1.66663C25.4398 1.66663 26.8364 2.02206 28.1019 2.73292C29.3827 3.44379 30.3858 4.43281 31.1111 5.70001C31.8519 6.9672 32.2222 8.39665 32.2222 9.98837C32.2222 11.5801 31.8519 13.0173 31.1111 14.2999C30.3704 15.5671 29.3673 16.5561 28.1019 17.267C26.8364 17.9779 25.4398 18.3333 23.912 18.3333ZM23.912 14.7172C25.2083 14.7172 26.2423 14.2845 27.0139 13.4191C27.8009 12.5537 28.1945 11.4101 28.1945 9.98837C28.1945 8.55119 27.8009 7.40762 27.0139 6.55768C26.2423 5.69228 25.2083 5.25958 23.912 5.25958C22.6003 5.25958 21.5509 5.68455 20.7639 6.5345C19.9923 7.38444 19.6065 8.53573 19.6065 9.98837C19.6065 11.4256 19.9923 12.5768 20.7639 13.4422C21.5509 14.2922 22.6003 14.7172 23.912 14.7172Z" fill="#212B36"/>
<path d="M6.22984 15.0095H13.3333V18.3333H1.66667V15.2469L8.72312 4.99046H1.66667V1.66663H13.3333V4.75305L6.22984 15.0095Z" fill="#212B36"/>
</svg>
