<svg width="18" height="18" viewBox="0 0 18 18" fill="none" xmlns="http://www.w3.org/2000/svg">
<path d="M17.1249 16.2411L12.4048 11.521C13.539 10.1594 14.1046 8.41288 13.9839 6.64485C13.8632 4.87682 13.0655 3.22339 11.7568 2.02851C10.4481 0.833631 8.7291 0.189302 6.95741 0.229562C5.18572 0.269822 3.49776 0.991571 2.24467 2.24467C0.991571 3.49776 0.269822 5.18572 0.229562 6.95741C0.189302 8.7291 0.833631 10.4481 2.02851 11.7568C3.22339 13.0655 4.87682 13.8632 6.64485 13.9839C8.41288 14.1046 10.1594 13.539 11.521 12.4048L16.2411 17.1249L17.1249 16.2411ZM1.4999 7.1249C1.4999 6.01238 1.8298 4.92485 2.44789 3.99982C3.06597 3.0748 3.94448 2.35382 4.97231 1.92808C6.00014 1.50234 7.13114 1.39094 8.22229 1.60799C9.31343 1.82503 10.3157 2.36076 11.1024 3.14743C11.8891 3.9341 12.4248 4.93638 12.6418 6.02752C12.8589 7.11866 12.7475 8.24966 12.3217 9.2775C11.896 10.3053 11.175 11.1838 10.25 11.8019C9.32496 12.42 8.23742 12.7499 7.1249 12.7499C5.63357 12.7483 4.20379 12.1551 3.14926 11.1006C2.09472 10.046 1.50156 8.61624 1.4999 7.1249Z" fill="#212B36"/>
</svg>
