<svg width="20" height="20" viewBox="0 0 20 20" fill="none" xmlns="http://www.w3.org/2000/svg">
<path d="M10 19.625C8.09636 19.625 6.23546 19.0605 4.65264 18.0029C3.06982 16.9453 1.83616 15.4421 1.10766 13.6833C0.37917 11.9246 0.188563 9.98933 0.559946 8.12226C0.931329 6.25519 1.84802 4.54018 3.1941 3.1941C4.54018 1.84802 6.25519 0.931329 8.12226 0.559946C9.98933 0.188563 11.9246 0.37917 13.6833 1.10766C15.4421 1.83616 16.9453 3.06982 18.0029 4.65264C19.0605 6.23546 19.625 8.09636 19.625 10C19.625 12.5527 18.6109 15.0009 16.8059 16.8059C15.0009 18.6109 12.5527 19.625 10 19.625ZM10 1.75C8.36831 1.75 6.77326 2.23386 5.41655 3.14038C4.05984 4.0469 3.00242 5.33538 2.378 6.84287C1.75358 8.35036 1.5902 10.0092 1.90853 11.6095C2.22685 13.2098 3.01259 14.6799 4.16637 15.8336C5.32016 16.9874 6.79017 17.7732 8.39051 18.0915C9.99085 18.4098 11.6497 18.2464 13.1571 17.622C14.6646 16.9976 15.9531 15.9402 16.8596 14.5835C17.7661 13.2268 18.25 11.6317 18.25 10C18.25 7.81197 17.3808 5.71355 15.8336 4.16637C14.2865 2.6192 12.188 1.75 10 1.75Z" fill="#919EAB"/>
<path d="M13.1556 14.125L9.31251 10.2819V3.81251H10.6875V9.71126L14.125 13.1556L13.1556 14.125Z" fill="#919EAB"/>
</svg>
