<svg width="40" height="40" viewBox="0 0 40 40" fill="none" xmlns="http://www.w3.org/2000/svg">
<path d="M18.3333 25.8331C18.1386 25.8335 17.9499 25.7657 17.8 25.6415C17.6296 25.5002 17.5224 25.2969 17.5021 25.0764C17.4817 24.856 17.55 24.6365 17.6917 24.4665L21.425 19.9998L17.825 15.5248C17.6852 15.3526 17.6198 15.1318 17.6432 14.9113C17.6667 14.6908 17.7771 14.4887 17.95 14.3498C18.1243 14.1964 18.3547 14.1227 18.5856 14.1465C18.8166 14.1702 19.0272 14.2892 19.1667 14.4748L23.1917 19.4748C23.4444 19.7823 23.4444 20.2256 23.1917 20.5331L19.025 25.5331C18.8555 25.7377 18.5985 25.8491 18.3333 25.8331Z" fill="#212B36"/>
</svg>
