<svg width="18" height="18" viewBox="0 0 18 18" fill="none" xmlns="http://www.w3.org/2000/svg">
<path d="M14.625 6.75H11.25V3.375C11.2495 2.9276 11.0716 2.49866 10.7552 2.1823C10.4388 1.86594 10.0099 1.68799 9.5625 1.6875H8.3628C8.09228 1.68858 7.83112 1.78666 7.62675 1.96391C7.42239 2.14116 7.28837 2.38583 7.24905 2.65348L6.77357 5.98151L4.76145 9H1.125V16.875H12.9375C13.9814 16.8738 14.9823 16.4586 15.7205 15.7205C16.4586 14.9823 16.8738 13.9814 16.875 12.9375V9C16.8743 8.40347 16.6371 7.83156 16.2153 7.40975C15.7934 6.98794 15.2215 6.75067 14.625 6.75ZM4.5 15.75H2.25V10.125H4.5V15.75ZM15.75 12.9375C15.7492 13.6832 15.4526 14.398 14.9253 14.9253C14.398 15.4526 13.6832 15.7492 12.9375 15.75H5.625V9.73277L7.85126 6.39349L8.3628 2.8125H9.5625C9.71165 2.81262 9.85465 2.87192 9.96012 2.97738C10.0656 3.08285 10.1249 3.22585 10.125 3.375V7.875H14.625C14.9233 7.87537 15.2092 7.99402 15.4201 8.20492C15.631 8.41581 15.7496 8.70175 15.75 9V12.9375Z" fill="#FA541C"/>
</svg>
