<svg width="18" height="18" viewBox="0 0 18 18" fill="none" xmlns="http://www.w3.org/2000/svg">
<path d="M16.2446 16.875C16.1445 16.8763 16.0459 16.851 15.9589 16.8016C15.8719 16.7521 15.7996 16.6804 15.7496 16.5937C15.0004 15.3175 13.9326 14.2577 12.6508 13.5181C11.3689 12.7786 9.91696 12.3847 8.4371 12.375V15.75C8.43654 15.861 8.40313 15.9694 8.34107 16.0615C8.27901 16.1536 8.19107 16.2253 8.08835 16.2675C7.98591 16.3105 7.87301 16.3223 7.76389 16.3013C7.65477 16.2803 7.55433 16.2274 7.47522 16.1493L0.725224 9.39933C0.672502 9.34704 0.630655 9.28483 0.602098 9.21628C0.573541 9.14773 0.558838 9.07421 0.558838 8.99996C0.558838 8.9257 0.573541 8.85218 0.602098 8.78363C0.630655 8.71509 0.672502 8.65287 0.725224 8.60058L7.47522 1.85058C7.55433 1.77253 7.65477 1.71966 7.76389 1.69863C7.87301 1.67761 7.98591 1.68938 8.08835 1.73246C8.19107 1.77466 8.27901 1.84632 8.34107 1.93841C8.40313 2.0305 8.43654 2.1389 8.4371 2.24996V5.68683C10.7643 5.98574 12.9034 7.12062 14.4557 8.87995C16.0081 10.6393 16.8678 12.9031 16.8746 15.2493C16.8733 15.6255 16.8488 16.0012 16.8015 16.3743C16.7874 16.4914 16.737 16.601 16.6572 16.6878C16.5775 16.7746 16.4725 16.8342 16.3571 16.8581L16.2446 16.875ZM8.15585 11.25C9.59045 11.2294 11.0124 11.5205 12.3235 12.1032C13.6346 12.6859 14.8036 13.5463 15.7496 14.625C15.5804 12.5844 14.6896 10.6709 13.2372 9.22776C11.7847 7.78457 9.86555 6.90611 7.82397 6.74996C7.68373 6.73728 7.55334 6.67247 7.45857 6.56832C7.36379 6.46418 7.31153 6.32827 7.3121 6.18746V3.60558L1.91772 8.99996L7.3121 14.3943V11.8125C7.3121 11.6633 7.37136 11.5202 7.47685 11.4147C7.58234 11.3092 7.72542 11.25 7.8746 11.25H8.17835H8.15585Z" fill="#212B36"/>
</svg>
