<svg width="24" height="25" viewBox="0 0 24 25" fill="none" xmlns="http://www.w3.org/2000/svg">
<path d="M5.25 21.332C5.05109 21.332 4.86032 21.2529 4.71967 21.1123C4.57902 20.9716 4.5 20.7809 4.5 20.582V4.08196C4.49999 3.95163 4.53395 3.82354 4.59852 3.71032C4.6631 3.59711 4.75606 3.50268 4.86825 3.43634C4.98044 3.36999 5.10798 3.33403 5.2383 3.332C5.36862 3.32997 5.49722 3.36193 5.61143 3.42474L20.6114 11.6747C20.7291 11.7395 20.8273 11.8346 20.8956 11.9502C20.964 12.0658 21 12.1976 21 12.3319C21 12.4662 20.964 12.5981 20.8956 12.7137C20.8273 12.8293 20.7291 12.9244 20.6114 12.9891L5.61143 21.2391C5.50069 21.3 5.37637 21.3319 5.25 21.332ZM6 5.35014V19.3136L18.6936 12.332L6 5.35014Z" fill="white"/>
</svg>
