<svg width="18" height="19" viewBox="0 0 18 19" fill="none" xmlns="http://www.w3.org/2000/svg">
<path d="M12.75 3.42484C12.75 3.32539 12.7105 3.23001 12.6402 3.15968C12.5698 3.08935 12.4745 3.04984 12.375 3.04984H10.5C9.55584 3.00281 8.63145 3.33139 7.92879 3.96378C7.22613 4.59617 6.80234 5.48097 6.75 6.42484V8.44984H4.875C4.77554 8.44984 4.68016 8.48935 4.60984 8.55968C4.53951 8.63001 4.5 8.72539 4.5 8.82484V10.7748C4.5 10.8743 4.53951 10.9697 4.60984 11.04C4.68016 11.1103 4.77554 11.1498 4.875 11.1498H6.75V16.1748C6.75 16.2743 6.78951 16.3697 6.85983 16.44C6.93016 16.5103 7.02554 16.5498 7.125 16.5498H9.375C9.47446 16.5498 9.56984 16.5103 9.64017 16.44C9.71049 16.3697 9.75 16.2743 9.75 16.1748V11.1498H11.715C11.7984 11.151 11.8798 11.1244 11.9464 11.0741C12.0129 11.0239 12.0608 10.9529 12.0825 10.8723L12.6225 8.92234C12.6374 8.86694 12.6394 8.80884 12.6284 8.75254C12.6173 8.69623 12.5935 8.64322 12.5587 8.59757C12.5239 8.55193 12.4791 8.51488 12.4278 8.48926C12.3764 8.46365 12.3199 8.45017 12.2625 8.44984H9.75V6.42484C9.76866 6.2392 9.85584 6.06718 9.99452 5.94236C10.1332 5.81755 10.3134 5.74891 10.5 5.74984H12.375C12.4745 5.74984 12.5698 5.71034 12.6402 5.64001C12.7105 5.56968 12.75 5.4743 12.75 5.37484V3.42484Z" fill="#1877F2"/>
</svg>
