<svg width="18" height="19" viewBox="0 0 18 19" fill="none" xmlns="http://www.w3.org/2000/svg">
<path fill-rule="evenodd" clip-rule="evenodd" d="M6 4.5498C4.75736 4.5498 3.75 5.55716 3.75 6.7998V12.7998C3.75 14.0424 4.75736 15.0498 6 15.0498H12C13.2426 15.0498 14.25 14.0424 14.25 12.7998V6.7998C14.25 5.55716 13.2426 4.5498 12 4.5498H6ZM2.25 6.7998C2.25 4.72874 3.92893 3.0498 6 3.0498H12C14.0711 3.0498 15.75 4.72874 15.75 6.7998V12.7998C15.75 14.8709 14.0711 16.5498 12 16.5498H6C3.92893 16.5498 2.25 14.8709 2.25 12.7998V6.7998ZM9 8.2998C8.17157 8.2998 7.5 8.97138 7.5 9.7998C7.5 10.6282 8.17157 11.2998 9 11.2998C9.82843 11.2998 10.5 10.6282 10.5 9.7998C10.5 8.97138 9.82843 8.2998 9 8.2998ZM6 9.7998C6 8.14295 7.34315 6.7998 9 6.7998C10.6569 6.7998 12 8.14295 12 9.7998C12 11.4567 10.6569 12.7998 9 12.7998C7.34315 12.7998 6 11.4567 6 9.7998Z" fill="#E02D69"/>
</svg>
