<svg width="18" height="19" viewBox="0 0 18 19" fill="none" xmlns="http://www.w3.org/2000/svg">
<path d="M14.7375 3.0498H3.2625C2.7 3.0498 2.25 3.4998 2.25 4.00605V15.5373C2.25 16.0436 2.7 16.4936 3.2625 16.4936H14.7375C15.3 16.4936 15.75 16.0436 15.75 15.5373V4.00605C15.75 3.4998 15.3 3.0498 14.7375 3.0498ZM6.24375 14.5248H4.275V8.1123H6.24375V14.5248ZM5.2875 7.2123C4.66875 7.2123 4.10625 6.70605 4.10625 6.03105C4.10625 5.35605 4.6125 4.8498 5.2875 4.8498C5.90625 4.8498 6.46875 5.35605 6.46875 6.03105C6.46875 6.70605 5.90625 7.2123 5.2875 7.2123ZM13.7812 14.4686H11.8125V11.3186C11.8125 10.5873 11.8125 9.5748 10.7438 9.5748C9.675 9.5748 9.5625 10.4186 9.5625 11.2061V14.4123H7.59375V8.1123H9.45V8.95605H9.50625C9.7875 8.4498 10.4625 7.8873 11.4187 7.8873C13.4437 7.8873 13.8375 9.23731 13.8375 10.9811V14.4686H13.7812Z" fill="#007EBB"/>
</svg>
