<svg width="18" height="19" viewBox="0 0 18 19" fill="none" xmlns="http://www.w3.org/2000/svg">
<path d="M6.705 14.8287C7.65514 14.8346 8.59701 14.6519 9.47599 14.2911C10.355 13.9302 11.1535 13.3984 11.8254 12.7266C12.4973 12.0547 13.029 11.2561 13.3899 10.3772C13.7507 9.49818 13.9335 8.55631 13.9275 7.60617C13.9275 7.49367 13.9275 7.38679 13.9275 7.27429C14.42 6.91344 14.8463 6.47001 15.1875 5.96367C14.7237 6.1665 14.233 6.30103 13.7306 6.36304C14.2633 6.04567 14.6629 5.54611 14.8556 4.95679C14.3592 5.2546 13.8149 5.46396 13.2469 5.57554C12.8643 5.16794 12.3581 4.89776 11.8066 4.80682C11.255 4.71588 10.6889 4.80925 10.1957 5.07247C9.70258 5.3357 9.30993 5.75411 9.07853 6.26296C8.84713 6.77182 8.78987 7.34275 8.91563 7.88742C7.90651 7.83789 6.91915 7.57637 6.01783 7.11989C5.1165 6.66341 4.32143 6.02221 3.68438 5.23804C3.36314 5.79558 3.26578 6.45435 3.41199 7.08097C3.5582 7.7076 3.93707 8.25525 4.47187 8.61304C4.07734 8.59783 3.69194 8.48991 3.34687 8.29804V8.32617C3.34337 8.90882 3.53966 9.47508 3.90302 9.93057C4.26639 10.3861 4.77488 10.7033 5.34375 10.8293C4.9768 10.928 4.59241 10.9434 4.21875 10.8743C4.38344 11.3712 4.69782 11.805 5.11878 12.1162C5.53973 12.4274 6.04664 12.6007 6.57 12.6124C5.67518 13.3327 4.56305 13.7292 3.41438 13.7374C3.21297 13.7316 3.01205 13.7147 2.8125 13.6868C3.97516 14.4275 5.32643 14.8181 6.705 14.8118" fill="#00AAEC"/>
</svg>
