<svg width="20" height="20" viewBox="0 0 20 20" fill="none" xmlns="http://www.w3.org/2000/svg">
<path d="M9.99992 13.3334C9.80521 13.3338 9.61652 13.266 9.46659 13.1418L4.46659 8.97509C4.11221 8.68053 4.0637 8.15447 4.35826 7.80009C4.65281 7.4457 5.17887 7.3972 5.53326 7.69175L9.99992 11.4251L14.4666 7.82509C14.6388 7.68528 14.8595 7.61986 15.0801 7.64332C15.3006 7.66678 15.5027 7.77719 15.6416 7.95009C15.7959 8.1233 15.871 8.35298 15.8488 8.58389C15.8267 8.81479 15.7093 9.02601 15.5249 9.16675L10.5249 13.1918C10.3707 13.2963 10.1858 13.3462 9.99992 13.3334Z" fill="#637381"/>
</svg>
