<svg width="24" height="24" viewBox="0 0 24 24" fill="none" xmlns="http://www.w3.org/2000/svg">
<path d="M5.25 20.8321C5.05109 20.8321 4.86032 20.7531 4.71967 20.6124C4.57902 20.4718 4.5 20.281 4.5 20.0821L4.5 3.58209C4.49999 3.45175 4.53395 3.32366 4.59852 3.21045C4.6631 3.09723 4.75606 3.0028 4.86825 2.93646C4.98044 2.87012 5.10798 2.83416 5.2383 2.83212C5.36862 2.83009 5.49722 2.86205 5.61143 2.92486L20.6114 11.1749C20.7291 11.2396 20.8273 11.3347 20.8956 11.4503C20.964 11.5659 21 11.6977 21 11.8321C21 11.9664 20.964 12.0982 20.8956 12.2138C20.8273 12.3294 20.7291 12.4245 20.6114 12.4892L5.61143 20.7392C5.50069 20.8001 5.37637 20.8321 5.25 20.8321ZM6 4.85026L6 18.8137L18.6936 11.8321L6 4.85026Z" fill="#FA541C"/>
</svg>
