<svg width="16" height="16" viewBox="0 0 16 16" fill="none" xmlns="http://www.w3.org/2000/svg">
<path fill-rule="evenodd" clip-rule="evenodd" d="M7.99541 0.667969C8.24917 0.667969 8.48093 0.812036 8.59323 1.03959L10.4954 4.89382L14.7484 5.51019C14.9996 5.54661 15.2084 5.72258 15.2868 5.96406C15.3652 6.20554 15.2997 6.47059 15.1177 6.64768L12.0358 9.64767L12.7625 13.8839C12.8054 14.1341 12.7025 14.387 12.497 14.5362C12.2915 14.6853 12.0192 14.7048 11.7946 14.5864L7.99972 12.5867L4.19565 14.5867C3.97103 14.7048 3.69885 14.6851 3.49355 14.536C3.28825 14.3868 3.18543 14.134 3.22834 13.8839L3.95503 9.64767L0.873065 6.64768C0.691134 6.47059 0.625585 6.20554 0.704002 5.96406C0.782419 5.72258 0.991188 5.54661 1.24245 5.51019L5.49543 4.89382L7.39758 1.03959C7.50989 0.812036 7.74164 0.667969 7.99541 0.667969ZM7.99541 2.84102L6.5359 5.79834C6.43875 5.99519 6.25093 6.13159 6.03369 6.16308L2.77234 6.63573L5.13641 8.93692C5.29377 9.09009 5.3656 9.31092 5.32848 9.52735L4.77087 12.7779L7.68983 11.2432C7.88425 11.141 8.11654 11.1411 8.31087 11.2435L11.2197 12.7763L10.6623 9.52735C10.6252 9.31092 10.697 9.09009 10.8544 8.93692L13.2185 6.63573L9.95712 6.16308C9.73988 6.13159 9.55206 5.99519 9.45492 5.79834L7.99541 2.84102Z" fill="#212B36"/>
</svg>
