<svg width="106" height="32" viewBox="0 0 106 32" fill="none" xmlns="http://www.w3.org/2000/svg">
<g clip-path="url(#clip0_24422_7833)">
<mask id="mask0_24422_7833" style="mask-type:alpha" maskUnits="userSpaceOnUse" x="0" y="0" width="106" height="32">
<rect width="106" height="32" fill="#919EAB"/>
</mask>
<g mask="url(#mask0_24422_7833)">
<path d="M40.3605 13.0418C40.3605 10.5001 42.2137 8.72532 45.5815 8.72532C47.6364 8.72532 49.3179 9.38142 50.2289 10.0241C50.3593 10.1159 50.5919 10.3385 50.4524 10.7526C50.2737 11.1986 49.9459 11.8693 49.7107 12.3049C49.5738 12.5588 49.2243 12.5254 49.0452 12.4346C48.3963 12.1058 47.332 11.5495 46.3542 11.447C46.1067 11.42 45.8576 11.4092 45.6086 11.4147C44.7475 11.4339 44.0281 11.7329 43.7748 12.3899C43.7251 12.5142 43.6974 12.6461 43.693 12.7799C43.6693 13.6456 44.8741 13.9587 46.3337 14.2094C49.0471 14.6743 51.0999 15.4698 51.0999 18.2626C51.0999 20.6344 49.215 22.7778 45.5218 22.7121C43.0871 22.6629 41.3598 21.8402 40.4342 21.0419C40.4027 21.0148 40.0504 20.656 40.2392 20.2244C40.4553 19.6688 40.8202 19.0321 41.1065 18.694C41.2656 18.4769 41.6857 18.4424 41.9041 18.5777C42.667 19.0518 43.9226 19.8121 45.37 19.8625C45.4842 19.8664 45.5974 19.8671 45.7086 19.8642C47.0105 19.8326 47.7982 19.339 47.7817 18.5074C47.7676 17.7748 46.7354 17.3469 45.0916 17.0371C42.47 16.5432 40.3605 15.6791 40.3605 13.0418ZM64.1778 16.6609C62.3291 16.6851 60.634 17.1904 60.5852 18.6352C60.5846 19.7817 61.5147 20.3448 62.82 20.2711C64.0722 20.1505 65.0271 19.6074 65.4478 18.8868C65.6034 18.6198 65.6271 17.6204 65.6177 17.1933C65.6153 17.1024 65.4355 16.9304 65.3568 16.8973C64.964 16.7318 64.6734 16.681 64.1778 16.6609ZM58.0263 10.8392C58.8908 10.0656 60.6049 8.86151 63.3367 8.92498C66.9417 8.99994 68.8462 10.69 69.0235 14.7329C69.0966 16.4002 68.9755 21.0507 68.9467 22.2093C68.9424 22.3756 68.8862 22.4905 68.6621 22.4948C68.0685 22.5186 66.6969 22.5092 66.0667 22.5009C65.7487 22.4855 65.7118 22.3277 65.7077 22.1625C65.705 22.0545 65.6957 21.734 65.689 21.4728C65.6854 21.3342 65.5552 21.3382 65.5219 21.3737C64.6763 22.2766 63.2914 22.7126 61.8186 22.7126C59.5802 22.7126 57.3486 21.3958 57.3554 18.788C57.3623 16.1173 59.256 14.8 61.3363 14.4894C62.6684 14.2911 64.17 14.4674 65.307 14.9192C65.3797 14.9484 65.5283 14.9062 65.5295 14.8031C65.5341 14.4628 65.5177 13.8142 65.4523 13.5068C65.2854 12.7236 64.6321 12.0935 63.2595 11.9236C62.9768 11.8888 62.6922 11.8773 62.4073 11.9C61.3162 11.9857 60.0032 12.8365 59.4594 13.155C59.3315 13.2298 59.1311 13.1751 59.0663 13.0916C58.7489 12.6816 57.9513 11.4826 57.8885 11.291C57.8258 11.1 57.9146 10.9398 58.0263 10.8392ZM70.2122 15.8108C70.1908 12.0861 72.786 8.94385 77.0002 8.91623C79.6297 8.89908 81.54 10.0912 81.8769 10.6535C81.9454 10.7855 81.9102 10.8958 81.8629 11.0288C81.6402 11.4988 81.0779 12.4068 80.6772 12.9214C80.5066 13.1406 80.3213 12.9528 80.106 12.8096C79.5086 12.4116 78.3734 11.925 77.2563 11.925C75.2295 11.9254 73.7202 13.3151 73.737 15.8719C73.7528 18.3254 75.1984 19.6738 77.2633 19.7227C78.3427 19.7498 79.3885 19.1294 79.9512 18.6211C80.1278 18.4669 80.3107 18.5441 80.5126 18.7019C80.9088 19.1069 81.4771 19.7321 81.7922 20.1625C81.9985 20.4016 81.8442 20.6356 81.7699 20.7296C80.915 21.8114 79.2638 22.7219 77.0787 22.7342C72.5034 22.7663 70.2333 19.5488 70.2122 15.8108ZM92.0526 22.5663C92.2673 22.5502 94.5591 22.2339 95.2626 22.0728C95.4372 22.033 95.4993 21.8862 95.4017 21.7407C95.0089 21.1517 93.9761 19.479 92.8944 17.9815C91.8995 16.6047 90.851 15.3937 90.5119 14.9278C90.4292 14.8146 90.4337 14.7031 90.5237 14.6153C91.1688 13.984 93.8673 11.3382 94.8819 10.2456C95.2747 9.82053 95.0389 9.63768 94.7053 9.53836C94.0608 9.34625 93.0184 9.1068 92.4256 8.98176C92.1757 8.92892 91.8747 8.94745 91.6562 9.17215C90.6417 10.1181 87.5458 13.2254 86.6216 14.1542C86.4552 14.3218 86.3583 14.2846 86.3574 14.0451C86.3499 12.2543 86.3146 4.58737 86.2506 3.32629C86.2461 3.15956 86.0456 3.03298 85.9326 3.02697C85.3514 2.99661 83.8833 2.98786 83.3047 3.02183C83.1426 3.04018 82.9877 3.20536 82.9737 3.34499C82.8402 5.36147 83.0303 20.164 83.1095 22.2347C83.1152 22.3845 83.2267 22.5006 83.3689 22.509C83.9461 22.5424 85.3737 22.5402 86.0403 22.5277C86.3682 22.5277 86.4084 22.2972 86.4084 22.2972L86.4578 18.3251C86.4578 18.3251 86.4916 18.1484 86.5463 18.0901C86.7813 17.8371 87.4314 17.1403 87.7086 16.871C87.7751 16.8064 87.8801 16.811 87.948 16.9024C88.2774 17.3467 89.2165 18.791 90.087 20.0808C90.8868 21.2658 91.6335 22.3174 91.6856 22.3917C91.8061 22.5632 91.9465 22.5696 92.0526 22.5663ZM53.0754 22.5526C53.277 22.5593 54.8062 22.5575 55.4837 22.5567C55.7118 22.5611 55.8304 22.3884 55.8379 22.2359C55.9818 19.3326 55.9202 5.50985 55.8293 3.32715C55.8218 3.13847 55.741 3.06762 55.6122 3.05047C55.0307 2.9726 53.3782 2.99078 52.8485 3.12937C52.7449 3.1563 52.6838 3.23504 52.6806 3.33624C52.5509 8.96237 52.6384 21.9334 52.6658 22.179C52.6931 22.425 52.8214 22.544 53.0754 22.5526Z" fill="#212B36"/>
<path d="M12.1498 16.78C11.2074 16.7872 10.4091 16.2256 10.1147 15.3491C10.1038 15.316 10.0936 15.2826 10.0842 15.2491C9.76346 14.1266 10.3854 12.9523 11.5002 12.5763L29.3803 6.586C29.5926 6.52459 29.8123 6.4925 30.0333 6.49063C31.0007 6.48309 31.821 7.05702 32.1225 7.95206L32.1493 8.03851C32.4838 9.20765 31.6527 10.2512 30.657 10.5857C30.6563 10.5862 30.4752 10.6475 12.876 16.6563C12.6421 16.736 12.3969 16.7778 12.1498 16.78Z" fill="#212B36"/>
<path d="M15.1299 25.5734C14.1802 25.5802 13.3791 25.0265 13.0882 24.1626C13.0772 24.1297 13.0669 24.0966 13.0573 24.0632C12.7321 22.9274 13.3534 21.7407 14.4719 21.3642L32.3528 15.3191C32.5838 15.2419 32.8224 15.2024 33.0624 15.2002C34.0147 15.193 34.8514 15.7748 35.1466 16.6486L35.1741 16.7395C35.3468 17.3434 35.2447 18.0222 34.9013 18.5579C34.6454 18.9562 33.8382 19.3068 33.8382 19.3068L15.8894 25.4439C15.6446 25.5267 15.3883 25.5702 15.1299 25.5734Z" fill="#212B36"/>
<path d="M30.0147 25.6116C29.5513 25.6161 29.0983 25.4737 28.7207 25.205C28.3431 24.9362 28.0602 24.5548 27.9126 24.1154L21.9452 6.38965L21.9153 6.29016C21.592 5.15979 22.2138 3.9807 23.3282 3.60505C23.5512 3.5301 23.7817 3.49099 24.0138 3.48893C24.3586 3.48636 24.6922 3.56406 25.0064 3.71929C25.2653 3.8473 25.4963 4.02522 25.6861 4.24282C25.876 4.46042 26.0209 4.71341 26.1126 4.98723L32.0796 22.7114L32.0969 22.7684C32.4321 23.942 31.8117 25.1218 30.6972 25.4974C30.4771 25.5709 30.2468 25.6095 30.0147 25.6116Z" fill="#212B36"/>
<path d="M21.1444 28.5972C20.6806 28.6016 20.2274 28.4591 19.8496 28.1901C19.4719 27.9211 19.1889 27.5395 19.0414 27.0998L13.0755 9.3747C12.9831 9.10125 12.9455 8.81225 12.9649 8.52425C12.9843 8.23624 13.0603 7.95489 13.1885 7.6963C13.3168 7.43772 13.4948 7.20697 13.7124 7.01727C13.93 6.82757 14.1828 6.68265 14.4565 6.59079C14.6769 6.5171 14.9076 6.47844 15.14 6.47621C15.6036 6.47164 16.0567 6.61395 16.4343 6.88273C16.812 7.15152 17.0949 7.53299 17.2424 7.97246L23.2085 25.6982C23.301 25.9718 23.3386 26.2609 23.3192 26.5491C23.2997 26.8372 23.2236 27.1187 23.0951 27.3773C22.9667 27.636 22.7885 27.8668 22.5707 28.0565C22.3529 28.2461 22.0999 28.391 21.826 28.4826C21.606 28.5564 21.3764 28.5952 21.1444 28.5972Z" fill="#212B36"/>
<path d="M27.0728 21.6198L31.2338 20.1972L29.8736 16.1577L25.7078 17.5654L27.0728 21.6198Z" fill="#212B36"/>
<path d="M18.2163 24.648L22.3769 23.2255L21.0064 19.1551L16.8417 20.5634L18.2163 24.648Z" fill="#212B36"/>
<path d="M24.1103 12.821L28.2716 11.4003L26.9273 7.40794L22.7583 8.8047L24.1103 12.821Z" fill="#212B36"/>
<path d="M15.2528 15.8451L19.4141 14.4244L18.0534 10.3811L13.8844 11.7777L15.2528 15.8451Z" fill="#212B36"/>
</g>
</g>
<defs>
<clipPath id="clip0_24422_7833">
<rect width="106" height="32" fill="white"/>
</clipPath>
</defs>
</svg>
