<svg width="24" height="25" viewBox="0 0 24 25" fill="none" xmlns="http://www.w3.org/2000/svg">
<path d="M21.7502 21.1894L16.0861 15.5253C17.4471 13.8913 18.1258 11.7955 17.981 9.67387C17.8362 7.55224 16.8789 5.56812 15.3085 4.13426C13.738 2.70041 11.6752 1.92721 9.54918 1.97552C7.42316 2.02384 5.39761 2.88993 3.89389 4.39365C2.39018 5.89736 1.52408 7.92292 1.47577 10.0489C1.42746 12.175 2.20065 14.2378 3.63451 15.8082C5.06836 17.3787 7.05248 18.3359 9.17412 18.4808C11.2958 18.6256 13.3915 17.9469 15.0255 16.5859L20.6896 22.2499L21.7502 21.1894ZM3.00018 10.2499C3.00018 8.91491 3.39606 7.60987 4.13776 6.49983C4.87946 5.3898 5.93366 4.52464 7.16706 4.01375C8.40047 3.50285 9.75766 3.36918 11.067 3.62963C12.3764 3.89008 13.5791 4.53296 14.5231 5.47696C15.4672 6.42097 16.11 7.6237 16.3705 8.93307C16.6309 10.2424 16.4973 11.5996 15.9864 12.833C15.4755 14.0664 14.6103 15.1207 13.5003 15.8624C12.3902 16.6041 11.0852 16.9999 9.75018 16.9999C7.96058 16.9979 6.24484 16.2862 4.9794 15.0207C3.71396 13.7553 3.00216 12.0395 3.00018 10.2499Z" fill="#919EAB"/>
</svg>
