<svg width="20" height="20" viewBox="0 0 20 20" fill="none" xmlns="http://www.w3.org/2000/svg">
<path d="M6.25 18.75H2.5C2.16848 18.75 1.85054 18.6183 1.61612 18.3839C1.3817 18.1495 1.25 17.8315 1.25 17.5V10C1.25 9.66848 1.3817 9.35054 1.61612 9.11612C1.85054 8.8817 2.16848 8.75 2.5 8.75H6.25C6.58152 8.75 6.89946 8.8817 7.13388 9.11612C7.3683 9.35054 7.5 9.66848 7.5 10V17.5C7.5 17.8315 7.3683 18.1495 7.13388 18.3839C6.89946 18.6183 6.58152 18.75 6.25 18.75ZM2.5 10V17.5H6.25V10H2.5Z" fill="#212B36"/>
<path d="M17.5 2.5H3.75C3.41848 2.5 3.10054 2.6317 2.86612 2.86612C2.6317 3.10054 2.5 3.41848 2.5 3.75V7.5H3.75V3.75H17.5V12.5H8.75V13.75H10V16.25H8.75V17.5H14.375V16.25H11.25V13.75H17.5C17.8315 13.75 18.1495 13.6183 18.3839 13.3839C18.6183 13.1495 18.75 12.8315 18.75 12.5V3.75C18.75 3.41848 18.6183 3.10054 18.3839 2.86612C18.1495 2.6317 17.8315 2.5 17.5 2.5Z" fill="#212B36"/>
</svg>
