<svg width="20" height="20" viewBox="0 0 20 20" fill="none" xmlns="http://www.w3.org/2000/svg">
<path d="M17.5 12.5H16.25V13.75H17.5V17.5H2.5V13.75H3.75V12.5H2.5C2.1686 12.5004 1.85089 12.6322 1.61656 12.8666C1.38222 13.1009 1.2504 13.4186 1.25 13.75V17.5C1.2504 17.8314 1.38222 18.1491 1.61656 18.3834C1.85089 18.6178 2.1686 18.7496 2.5 18.75H17.5C17.8314 18.7496 18.1491 18.6178 18.3834 18.3834C18.6178 18.1491 18.7496 17.8314 18.75 17.5V13.75C18.7496 13.4186 18.6178 13.1009 18.3834 12.8666C18.1491 12.6322 17.8314 12.5004 17.5 12.5Z" fill="#212B36"/>
<path d="M4.375 16.25C4.72018 16.25 5 15.9702 5 15.625C5 15.2798 4.72018 15 4.375 15C4.02982 15 3.75 15.2798 3.75 15.625C3.75 15.9702 4.02982 16.25 4.375 16.25Z" fill="#212B36"/>
<path d="M13.125 8.125C12.8465 8.12641 12.5719 8.19067 12.3216 8.313L10.8838 6.875L12.3213 5.437C12.5716 5.55937 12.8464 5.62364 13.125 5.625C13.4958 5.625 13.8584 5.51503 14.1667 5.30901C14.475 5.10298 14.7154 4.81014 14.8573 4.46753C14.9992 4.12492 15.0363 3.74792 14.964 3.38421C14.8916 3.02049 14.713 2.6864 14.4508 2.42418C14.1886 2.16195 13.8545 1.98338 13.4908 1.91103C13.1271 1.83868 12.7501 1.87581 12.4075 2.01773C12.0649 2.15964 11.772 2.39996 11.566 2.70831C11.36 3.01665 11.25 3.37916 11.25 3.75C11.2514 4.02843 11.3155 4.30298 11.4375 4.55325L10 5.99119L8.5625 4.55325C8.68452 4.30298 8.74861 4.02843 8.75 3.75C8.75 3.37916 8.64003 3.01665 8.43401 2.70831C8.22798 2.39996 7.93514 2.15964 7.59253 2.01773C7.24992 1.87581 6.87292 1.83868 6.50921 1.91103C6.14549 1.98338 5.8114 2.16195 5.54917 2.42418C5.28695 2.6864 5.10837 3.02049 5.03603 3.38421C4.96368 3.74792 5.00081 4.12492 5.14273 4.46753C5.28464 4.81014 5.52496 5.10298 5.83331 5.30901C6.14165 5.51503 6.50416 5.625 6.875 5.625C7.15353 5.62359 7.42814 5.55933 7.67838 5.437L9.11619 6.875L7.67838 8.313C7.42814 8.19067 7.15353 8.12641 6.875 8.125C6.50416 8.125 6.14165 8.23497 5.83331 8.441C5.52496 8.64702 5.28464 8.93986 5.14273 9.28247C5.00081 9.62508 4.96368 10.0021 5.03603 10.3658C5.10837 10.7295 5.28695 11.0636 5.54917 11.3258C5.8114 11.5881 6.14549 11.7666 6.50921 11.839C6.87292 11.9113 7.24992 11.8742 7.59253 11.7323C7.93514 11.5904 8.22798 11.35 8.43401 11.0417C8.64003 10.7334 8.75 10.3708 8.75 10C8.74861 9.72157 8.68452 9.44703 8.5625 9.19675L10 7.75881L11.4375 9.19675C11.3155 9.44703 11.2514 9.72157 11.25 10C11.25 10.3708 11.36 10.7334 11.566 11.0417C11.772 11.35 12.0649 11.5904 12.4075 11.7323C12.7501 11.8742 13.1271 11.9113 13.4908 11.839C13.8545 11.7666 14.1886 11.5881 14.4508 11.3258C14.713 11.0636 14.8916 10.7295 14.964 10.3658C15.0363 10.0021 14.9992 9.62508 14.8573 9.28247C14.7154 8.93986 14.475 8.64702 14.1667 8.441C13.8584 8.23497 13.4958 8.125 13.125 8.125ZM13.125 3.125C13.2486 3.125 13.3695 3.16166 13.4722 3.23033C13.575 3.29901 13.6551 3.39662 13.7024 3.51082C13.7497 3.62503 13.7621 3.75069 13.738 3.87193C13.7139 3.99317 13.6544 4.10453 13.5669 4.19194C13.4795 4.27935 13.3682 4.33888 13.2469 4.36299C13.1257 4.38711 13 4.37473 12.8858 4.32743C12.7716 4.28012 12.674 4.20001 12.6053 4.09723C12.5367 3.99445 12.5 3.87361 12.5 3.75C12.5001 3.58429 12.566 3.4254 12.6832 3.30822C12.8004 3.19105 12.9593 3.12515 13.125 3.125ZM6.25 3.75C6.25 3.62639 6.28666 3.50555 6.35533 3.40277C6.42401 3.29999 6.52162 3.21988 6.63582 3.17258C6.75003 3.12527 6.87569 3.11289 6.99693 3.13701C7.11817 3.16113 7.22953 3.22065 7.31694 3.30806C7.40435 3.39547 7.46387 3.50683 7.48799 3.62807C7.51211 3.74931 7.49973 3.87497 7.45242 3.98918C7.40512 4.10338 7.32501 4.20099 7.22223 4.26967C7.11945 4.33835 6.99861 4.375 6.875 4.375C6.70929 4.37485 6.5504 4.30896 6.43322 4.19178C6.31604 4.0746 6.25015 3.91572 6.25 3.75ZM6.875 10.625C6.75139 10.625 6.63055 10.5883 6.52777 10.5197C6.42499 10.451 6.34488 10.3534 6.29757 10.2392C6.25027 10.125 6.23789 9.99931 6.26201 9.87807C6.28612 9.75683 6.34565 9.64547 6.43306 9.55806C6.52047 9.47065 6.63183 9.41113 6.75307 9.38701C6.87431 9.3629 6.99997 9.37527 7.11418 9.42258C7.22838 9.46988 7.32599 9.54999 7.39467 9.65277C7.46334 9.75555 7.5 9.87639 7.5 10C7.49985 10.1657 7.43396 10.3246 7.31678 10.4418C7.1996 10.559 7.04071 10.6249 6.875 10.625ZM13.125 10.625C13.0014 10.625 12.8805 10.5883 12.7778 10.5197C12.675 10.451 12.5949 10.3534 12.5476 10.2392C12.5003 10.125 12.4879 9.99931 12.512 9.87807C12.5361 9.75683 12.5957 9.64547 12.6831 9.55806C12.7705 9.47065 12.8818 9.41113 13.0031 9.38701C13.1243 9.3629 13.25 9.37527 13.3642 9.42258C13.4784 9.46988 13.576 9.54999 13.6447 9.65277C13.7133 9.75555 13.75 9.87639 13.75 10C13.7499 10.1657 13.684 10.3246 13.5668 10.4418C13.4496 10.559 13.2907 10.6249 13.125 10.625Z" fill="#212B36"/>
</svg>
