<svg width="20" height="20" viewBox="0 0 20 20" fill="none" xmlns="http://www.w3.org/2000/svg">
<path d="M16.25 6.25H11.875V7.5H16.25V6.25Z" fill="#919EAB"/>
<path d="M16.25 9.375H11.875V10.625H16.25V9.375Z" fill="#919EAB"/>
<path d="M16.25 12.5H11.875V13.75H16.25V12.5Z" fill="#919EAB"/>
<path d="M17.5 3.125H2.5C2.16858 3.12533 1.85083 3.25713 1.61648 3.49148C1.38213 3.72583 1.25033 4.04358 1.25 4.375V15.625C1.25038 15.9564 1.3822 16.2741 1.61654 16.5085C1.85087 16.7428 2.1686 16.8746 2.5 16.875H17.5C17.8314 16.8746 18.1491 16.7427 18.3834 16.5084C18.6177 16.2741 18.7496 15.9564 18.75 15.625V4.375C18.7496 4.0436 18.6178 3.72587 18.3835 3.49154C18.1491 3.2572 17.8314 3.12538 17.5 3.125ZM2.5 4.375H9.375V15.625H2.5V4.375ZM10.625 15.625V4.375H17.5L17.5013 15.625H10.625Z" fill="#919EAB"/>
</svg>
