<svg width="48" height="49" viewBox="0 0 48 49" fill="none" xmlns="http://www.w3.org/2000/svg">
<path d="M18 22.833H9.165C9.44378 20.9765 10.1067 19.1986 11.1114 17.6128C12.1161 16.0269 13.4405 14.6681 15 13.623L17.685 11.823L16.035 9.33301L13.35 11.133C11.0899 12.6391 9.23656 14.6798 7.9544 17.0741C6.67223 19.4683 6.00091 22.1421 6 24.858V34.833C6 35.6287 6.31607 36.3917 6.87868 36.9543C7.44129 37.5169 8.20435 37.833 9 37.833H18C18.7956 37.833 19.5587 37.5169 20.1213 36.9543C20.6839 36.3917 21 35.6287 21 34.833V25.833C21 25.0374 20.6839 24.2743 20.1213 23.7117C19.5587 23.1491 18.7956 22.833 18 22.833Z" fill="#FA541C"/>
<path d="M39 22.833H30.165C30.4438 20.9765 31.1067 19.1986 32.1114 17.6128C33.1161 16.0269 34.4405 14.6681 36 13.623L38.685 11.823L37.05 9.33301L34.35 11.133C32.0899 12.6391 30.2366 14.6798 28.9544 17.0741C27.6722 19.4683 27.0009 22.1421 27 24.858V34.833C27 35.6287 27.3161 36.3917 27.8787 36.9543C28.4413 37.5169 29.2043 37.833 30 37.833H39C39.7957 37.833 40.5587 37.5169 41.1213 36.9543C41.6839 36.3917 42 35.6287 42 34.833V25.833C42 25.0374 41.6839 24.2743 41.1213 23.7117C40.5587 23.1491 39.7957 22.833 39 22.833Z" fill="#FA541C"/>
</svg>
