<svg width="20" height="21" viewBox="0 0 20 21" fill="none" xmlns="http://www.w3.org/2000/svg">
<path d="M10 19.083C8.26942 19.083 6.57769 18.5698 5.13876 17.6084C3.69983 16.6469 2.57832 15.2803 1.91606 13.6815C1.25379 12.0826 1.08051 10.3233 1.41813 8.62597C1.75575 6.92864 2.58911 5.36954 3.81282 4.14583C5.03653 2.92212 6.59563 2.08876 8.29296 1.75114C9.9903 1.41352 11.7496 1.5868 13.3485 2.24907C14.9473 2.91133 16.3139 4.03284 17.2754 5.47177C18.2368 6.9107 18.75 8.60243 18.75 10.333C18.75 12.6537 17.8281 14.8793 16.1872 16.5202C14.5462 18.1611 12.3206 19.083 10 19.083ZM10 2.83301C8.51664 2.83301 7.0666 3.27288 5.83323 4.09699C4.59986 4.9211 3.63856 6.09244 3.07091 7.46289C2.50325 8.83333 2.35473 10.3413 2.64411 11.7962C2.9335 13.251 3.64781 14.5874 4.6967 15.6363C5.7456 16.6852 7.08197 17.3995 8.53683 17.6889C9.99168 17.9783 11.4997 17.8298 12.8701 17.2621C14.2406 16.6945 15.4119 15.7332 16.236 14.4998C17.0601 13.2664 17.5 11.8164 17.5 10.333C17.5 8.34389 16.7098 6.43623 15.3033 5.02971C13.8968 3.62319 11.9891 2.83301 10 2.83301Z" fill="#919EAB"/>
<path d="M12.8688 14.083L9.37501 10.5893V4.70801H10.625V10.0705L13.75 13.2018L12.8688 14.083Z" fill="#919EAB"/>
</svg>
