<svg width="20" height="21" viewBox="0 0 20 21" fill="none" xmlns="http://www.w3.org/2000/svg">
<path d="M14.6331 17.9437C14.4999 17.9442 14.3684 17.9128 14.2498 17.852L9.9998 15.627L5.7498 17.852C5.6118 17.9246 5.4562 17.957 5.3007 17.9455C5.1452 17.9341 4.99603 17.8792 4.87016 17.7872C4.74429 17.6952 4.64675 17.5697 4.58865 17.425C4.53054 17.2803 4.5142 17.1222 4.54147 16.9687L5.3748 12.277L1.94147 8.94369C1.83435 8.8368 1.75836 8.70275 1.72166 8.55594C1.68496 8.40912 1.68892 8.25509 1.73314 8.11036C1.78144 7.96225 1.87028 7.83065 1.98959 7.73049C2.10891 7.63033 2.2539 7.56561 2.40814 7.54369L7.15814 6.85203L9.2498 2.57703C9.31804 2.43613 9.42458 2.31731 9.55723 2.23417C9.68987 2.15103 9.84326 2.10693 9.9998 2.10693C10.1563 2.10693 10.3097 2.15103 10.4424 2.23417C10.575 2.31731 10.6816 2.43613 10.7498 2.57703L12.8665 6.84369L17.6165 7.53536C17.7707 7.55728 17.9157 7.62199 18.035 7.72216C18.1543 7.82232 18.2432 7.95392 18.2915 8.10203C18.3357 8.24675 18.3396 8.40079 18.3029 8.5476C18.2662 8.69442 18.1903 8.82846 18.0831 8.93536L14.6498 12.2687L15.4831 16.9604C15.5129 17.1166 15.4973 17.2781 15.4382 17.4257C15.3792 17.5734 15.2791 17.7011 15.1498 17.7937C14.9989 17.8994 14.8172 17.9522 14.6331 17.9437Z" fill="#FFC81A"/>
</svg>
