<svg width="36" height="36" viewBox="0 0 36 36" fill="none" xmlns="http://www.w3.org/2000/svg">
<path d="M22.1667 10.9167C22.1667 10.8062 22.1228 10.7002 22.0446 10.6221C21.9665 10.5439 21.8605 10.5 21.75 10.5H19.6667C18.6176 10.4478 17.5905 10.8129 16.8098 11.5155C16.029 12.2182 15.5582 13.2013 15.5 14.25V16.5H13.4167C13.3062 16.5 13.2002 16.5439 13.122 16.6221C13.0439 16.7002 13 16.8062 13 16.9167V19.0834C13 19.1939 13.0439 19.2999 13.122 19.378C13.2002 19.4561 13.3062 19.5 13.4167 19.5H15.5V25.0834C15.5 25.1939 15.5439 25.2999 15.622 25.378C15.7002 25.4561 15.8062 25.5 15.9167 25.5H18.4167C18.5272 25.5 18.6332 25.4561 18.7113 25.378C18.7894 25.2999 18.8333 25.1939 18.8333 25.0834V19.5H21.0167C21.1093 19.5014 21.1998 19.4718 21.2737 19.4159C21.3477 19.3601 21.4009 19.2812 21.425 19.1917L22.025 17.025C22.0416 16.9635 22.0438 16.8989 22.0315 16.8364C22.0192 16.7738 21.9927 16.7149 21.9541 16.6642C21.9155 16.6135 21.8657 16.5723 21.8086 16.5438C21.7516 16.5154 21.6888 16.5004 21.625 16.5H18.8333V14.25C18.8541 14.0438 18.9509 13.8526 19.105 13.714C19.2591 13.5753 19.4594 13.499 19.6667 13.5H21.75C21.8605 13.5 21.9665 13.4561 22.0446 13.378C22.1228 13.2999 22.1667 13.1939 22.1667 13.0834V10.9167Z" fill="white"/>
</svg>
