<svg width="24" height="24" viewBox="0 0 24 24" fill="none" xmlns="http://www.w3.org/2000/svg">
<path d="M21 4.33203H3C2.60218 4.33203 2.22064 4.49007 1.93934 4.77137C1.65804 5.05268 1.5 5.43421 1.5 5.83203V17.832C1.5 18.2299 1.65804 18.6114 1.93934 18.8927C2.22064 19.174 2.60218 19.332 3 19.332H21C21.3978 19.332 21.7794 19.174 22.0607 18.8927C22.342 18.6114 22.5 18.2299 22.5 17.832V5.83203C22.5 5.43421 22.342 5.05268 22.0607 4.77137C21.7794 4.49007 21.3978 4.33203 21 4.33203ZM19.35 5.83203L12 10.917L4.65 5.83203H19.35ZM3 17.832V6.51453L11.5725 12.447C11.698 12.5341 11.8472 12.5808 12 12.5808C12.1528 12.5808 12.302 12.5341 12.4275 12.447L21 6.51453V17.832H3Z" fill="white"/>
</svg>
