<svg width="24" height="24" viewBox="0 0 24 24" fill="none" xmlns="http://www.w3.org/2000/svg">
<path d="M16.5 3H7.5C7.1023 3.0004 6.721 3.15856 6.43978 3.43978C6.15856 3.721 6.0004 4.1023 6 4.5V21C6.00046 21.3977 6.15864 21.7789 6.43984 22.0602C6.72105 22.3414 7.10232 22.4995 7.5 22.5H16.5C16.8977 22.4995 17.2789 22.3413 17.5601 22.0601C17.8413 21.7789 17.9995 21.3977 18 21V4.5C17.9995 4.10232 17.8414 3.72105 17.5602 3.43984C17.279 3.15864 16.8977 3.00046 16.5 3ZM16.5 4.5V6H7.5V4.5H16.5ZM7.5 21V7.5H16.5V21H7.5Z" fill="#212B36"/>
</svg>
